<?xml version="1.0" encoding="utf-8"?>
<svg width="463px" height="217px" viewBox="0 0 463 217" version="1.1" xmlns="http://www.w3.org/2000/svg">
  <title>Logo</title>
  <desc>Created with Sketch.</desc>
  <g id="Logo" stroke="none" stroke-width="1" fill="none" fill-rule="evenodd">
    <g id="BNM-FINANCE-&amp;-LAW-LOGO" transform="translate(9.000000, 5.000000)">
      <path d="M301.872218,186.681351 C299.258326,190.491918 296.50316,192.422452 293.597771,192.462724 C290.933378,192.482541 288.35912,190.934278 285.885863,187.817297 C282.960017,190.692642 279.139861,192.140543 274.434345,192.160999 C271.880543,192.180815 269.859235,191.567775 268.361473,190.31101 C266.632303,188.873338 265.837716,186.772124 265.978351,183.986913 C266.119625,181.342338 267.446707,178.909354 269.960237,176.687322 C270.472915,176.234733 272.423266,174.898062 275.831745,172.665802 C274.635069,169.569277 274.041846,167.065336 274.062302,165.155258 C274.082118,162.812408 274.997524,160.892102 276.80724,159.394341 C278.415592,158.076847 280.255352,157.413306 282.316932,157.413306 C284.066558,157.413306 285.524048,157.936212 286.68045,158.982025 C287.957032,160.138427 288.600756,161.716734 288.600756,163.707358 C288.600756,166.824339 286.076999,169.800046 281.019895,172.665802 C282.859655,175.732283 285.001141,179.110717 287.454582,182.810694 L290.601608,177.823908 C291.576463,176.265417 292.079553,174.937696 292.099369,173.861838 C292.139642,172.364076 291.114286,171.458899 289.0233,171.167401 L289.0233,170.322952 L299.519779,170.322952 L299.519779,171.167401 C297.67938,171.5599 296.201434,172.62553 295.10576,174.345111 L288.781664,184.419046 C290.722426,187.284802 293.09532,188.722475 295.900348,188.722475 C297.941472,188.722475 299.530007,187.777664 300.665954,185.886763 L301.872218,186.681351 Z M285.885863,164.109446 C285.966408,163.687541 286.006681,163.30527 286.006681,162.943455 C286.006681,161.817097 285.685139,160.942603 285.031186,160.328924 C284.377873,159.715883 283.573697,159.403929 282.638475,159.403929 C281.411755,159.403929 280.37617,159.816245 279.541949,160.651105 C278.627183,161.585688 278.164367,162.852681 278.164367,164.461672 C278.164367,165.989479 278.797863,168.111149 280.064856,170.805586 C281.934661,169.669639 283.161381,168.845007 283.72456,168.302284 C284.84069,167.236655 285.554092,165.838616 285.885863,164.109446 Z M284.377873,186.370036 C283.885012,185.917447 282.729248,184.328912 280.888848,181.614019 C278.81768,178.577583 277.400463,176.225144 276.635921,174.545835 C272.926355,176.888685 271.086595,179.643212 271.106411,182.790238 C271.126228,184.469547 271.679179,185.95772 272.765264,187.254118 C273.981756,188.732703 275.590747,189.466561 277.581371,189.446105 C278.586911,189.446105 279.76313,189.134791 281.110029,188.511522 C282.457567,187.897843 283.553241,187.183801 284.377873,186.370036 Z" id="Fill-1" style="fill: rgb(0, 0, 0);"/>
      <path d="M364.300059,160.192124 C364.138968,160.281619 363.965732,160.733569 363.699165,161.379211 L358.643978,174.863543 C358.58325,174.982443 358.461792,175.345537 358.461792,175.526444 C358.462431,175.88762 358.70215,176.005882 359.485231,176.005882 L369.296434,176.005882 C370.017508,176.005882 370.138326,175.94771 370.138326,175.526444 C370.138326,175.466355 370.138326,175.345537 369.89669,174.683913 L365.082501,161.618929 C364.781414,160.775759 364.541696,160.173586 364.359509,160.173586 C364.340971,160.173586 364.319876,160.180618 364.300059,160.192124 Z M384.341814,194.308877 L384.341814,194.319745 L383.990866,194.316548 L383.920548,194.317827 L383.920548,194.316548 C382.604333,194.296732 380.969133,194.198287 378.743905,194.198287 C377.420658,194.198287 373.328182,194.319745 371.763299,194.319745 L371.763299,193.223431 C375.194152,192.985631 376.215672,192.804084 376.215672,192.20255 C376.215672,191.960913 376.096772,191.539648 375.733678,190.636388 L371.101036,177.99203 C370.8594,177.331685 370.741139,177.210867 369.7177,177.210867 L358.702789,177.210867 C357.919709,177.210867 357.619261,177.573322 357.317535,178.355763 L353.225698,190.334662 C352.864522,191.41819 352.623525,192.081732 352.623525,192.502358 C352.623525,192.925541 353.707693,193.044442 356.414915,193.223431 L356.414915,194.319745 C354.490773,194.259016 352.864522,194.198287 351.359729,194.198287 C350.192459,194.198287 349.226553,194.257098 348.405117,194.292896 C348.036909,194.307599 347.696189,194.319745 347.379121,194.319745 L347.379121,192.866091 C347.768424,192.838603 348.106587,192.817508 348.405117,192.786185 C350.331815,192.5861 350.592629,192.061276 351.841084,188.831147 C356.034561,178.132665 360.129595,167.003329 364.300059,155.657287 L365.804853,151.56545 L366.346297,151.56545 C370.980857,164.449527 376.276401,177.934498 380.007701,187.566711 C381.802075,192.162916 382.133846,192.690297 383.920548,192.836046 C384.052234,192.846913 385.840215,192.836685 385.987882,192.846913 L385.987242,194.380473 L384.341814,194.308877 Z" id="Fill-2" style="fill: rgb(0, 0, 0);"/>
      <path d="M318.846853,193.056587 C318.966392,188.47956 318.966392,186.674958 318.966392,170.661115 L318.966392,153.802824 L315.235732,153.565023 L315.235732,152.469349 C317.28133,152.530078 318.966392,152.590167 321.373807,152.590167 C322.939329,152.590167 325.286654,152.530078 328.294962,152.469349 L328.294962,153.565023 L323.961489,153.802824 C323.783778,158.140133 323.781221,168.044667 323.781221,173.107524 L323.781221,193.056587 L331.665726,193.056587 C338.466063,193.056587 339.61032,192.816229 340.694488,192.332317 C342.258732,191.551154 342.439,190.405619 343.161352,184.567352 L345.146861,184.567352 L344.847053,194.259655 C339.189055,194.200205 329.980025,194.139476 325.286654,194.139476 C318.906942,194.139476 316.800615,194.259655 315.114274,194.259655 L315.114274,193.176127 L318.846853,193.056587" id="Fill-3" style="fill: rgb(0, 0, 0);"/>
      <path d="M425.503737,186.575235 C425.664828,186.485101 425.838065,186.03443 426.103993,185.388788 L431.027494,172.256043 C431.171964,171.871215 432.676758,167.873987 432.669726,167.873987 L436.577459,156.433336 C436.938635,155.349169 437.180271,154.686267 437.180271,154.265001 C437.179632,153.841818 436.096104,153.722918 433.388242,153.543928 L433.388242,152.448254 C435.313023,152.508983 436.938635,152.569072 438.444068,152.569072 C439.611338,152.569072 440.576605,152.510261 441.39804,152.475102 C441.766248,152.45976 442.106968,152.448254 442.424675,152.448254 L442.424675,153.901908 C442.034733,153.928756 441.697209,153.949851 441.39804,153.981814 C439.471981,154.181899 439.211167,154.706084 437.962074,157.936212 C433.769235,168.634694 429.674202,179.76403 425.503737,191.110711 L423.998304,195.202548 L423.457499,195.202548 C419.203932,183.377069 414.392939,171.045944 410.746659,161.65217 C407.059468,171.191053 403.433644,181.047004 399.748369,191.072356 L398.243576,195.164193 L397.702131,195.164193 C393.067571,182.280117 387.771388,168.795146 384.040727,159.162932 C382.246354,154.566088 381.914583,154.039346 380.12788,153.892958 C379.996195,153.882091 378.208214,153.892319 378.060547,153.88273 L378.060547,152.34917 L379.706615,152.420766 L379.706615,152.409899 L380.057563,152.413095 L380.12788,152.411817 L380.12788,152.413734 C381.444095,152.432912 383.079296,152.530717 385.304524,152.530717 C386.627771,152.530717 390.720247,152.409899 392.285769,152.409899 L392.285769,153.506212 C388.854277,153.743374 387.832756,153.924921 387.833395,154.526455 C387.833395,154.76873 387.951657,155.189996 388.31475,156.093255 L392.947392,168.736974 L398.965928,185.110075 C399.267014,185.953245 399.507372,186.556058 399.688919,186.556058 C399.707457,186.556058 399.727913,186.549026 399.748369,186.537519 C399.90946,186.447385 400.082697,185.996075 400.349264,185.350433 L405.272765,172.218328 C405.416596,171.83286 406.92139,167.835632 406.914358,167.835632 L409.831893,159.294618 L409.795456,159.201287 C408.001722,154.604443 407.669312,154.077701 405.883248,153.931313 C405.751563,153.920446 403.962942,153.930674 403.815915,153.920446 L403.815915,152.386886 L405.461983,152.458482 L405.461983,152.448254 L405.812291,152.450811 L405.883248,152.450172 L405.883248,152.45145 C407.198824,152.470628 408.834664,152.569072 411.059892,152.569072 C412.383139,152.569072 416.475615,152.448254 418.040498,152.448254 L418.040498,153.543928 C417.247828,153.598903 416.584287,153.650683 416.031975,153.705658 C415.140861,153.798988 414.514397,154.005466 413.990851,154.536683 C413.797159,154.732932 413.646935,155.029544 413.794602,155.410537 C413.866198,155.593362 413.955053,155.845866 414.069479,156.130971 L418.70276,168.775329 L424.721296,185.14843 C425.022382,185.9916 425.262101,186.593773 425.443648,186.593773 C425.462186,186.593773 425.483281,186.586742 425.503737,186.575235" id="Fill-4" style="fill: rgb(0, 0, 0);"/>
      <path d="M66.7523651,0.56765368 C65.6528557,0.56765368 64.5584603,0.595141414 63.4717359,0.648199134 C51.4953939,11.0871457 63.369456,34.2701732 49.0694416,9.17259307 C30.4992395,19.8180173 37.4223131,15.1534127 40.4664199,5.95524964 C32.0839394,9.55550361 24.5855411,14.8241991 18.3924906,21.3445455 C27.9307345,41.2673997 50.6336854,49.3807561 7.27274315,37.0803146 C2.66375325,46.1416782 0.0639249639,56.3946032 0.0639249639,67.2554545 C0.0639249639,104.080709 29.9271111,133.944534 66.7523651,133.944534 C75.6481631,133.944534 84.136759,132.197465 91.8972496,129.033818 C91.7534185,127.034885 91.6051126,124.652401 91.4401861,121.819886 C49.0713593,124.390948 104.321706,119.04746 87.0613261,87.2895382 C93.7050476,93.1910909 98.427824,100.151241 103.983543,106.653049 C107.524986,109.076444 111.170626,111.244779 114.772159,113.521147 C126.329792,101.529463 133.438887,85.2215657 133.438887,67.2554545 C133.438887,64.9420101 133.321266,62.6566926 133.090496,60.4039769 C115.706102,75.9140909 115.708659,103.443377 112.928563,55.5757244 C51.8853362,59.277619 111.523492,53.195798 111.370072,17.7001833 C99.5509856,7.05220202 83.9079076,0.56765368 66.7523651,0.56765368 Z M78.8834055,16.8192973 C74.6055469,12.0140577 69.3828773,16.6537316 73.6581789,21.4589711 C75.6372958,23.6803636 80.8593261,19.0419683 78.8834055,16.8192973 Z M26.5678543,59.1331486 C64.8537937,86.0647359 3.8041746,124.028494 51.4998687,96.6852294 C78.4320952,143.950709 45.3266349,80.4911183 91.8978889,76.7336089 C80.262267,73.5616522 68.8561356,73.5034805 57.3349394,71.8759509 C47.1491356,67.5271356 37.6690635,62.1606349 26.5678543,59.1331486 Z M51.2780491,60.721684 C55.5463189,45.1303853 72.4825988,49.7489639 68.2124113,65.3409019 C66.2371299,72.5516378 49.3008499,67.9324199 51.2780491,60.721684 Z M103.613417,96.8603838 C111.912795,87.5356494 122.047459,96.535645 113.748081,105.85974 C109.911304,110.172758 99.7766407,101.170205 103.613417,96.8603838 Z M87.4135527,11.8881255 C78.5171154,28.2535556 106.991851,31.0087215 85.1557229,29.683557 C83.9021544,51.2940303 84.4966566,22.8173766 67.2254098,29.7052915 C70.8147965,26.5173535 74.8740317,24.4794257 78.6954661,21.8642554 C81.558026,18.5152266 83.9903709,14.9290361 87.4135527,11.8881255 Z" id="Fill-5" fill="#E03F2B"/>
      <path d="M54.896202,192.924263 C54.7753838,189.432042 54.7753838,188.228974 54.7753838,179.441209 L54.7753838,167.222592 C54.7753838,158.434827 54.7753838,157.233038 54.896202,153.680727 L58.926671,153.560548 L58.926671,152.478299 C56.8216219,152.53711 55.0771097,152.597838 52.3692482,152.597838 C49.600658,152.597838 47.7353276,152.478299 45.8111861,152.478299 L45.8111861,153.560548 L49.8422944,153.680727 C49.9023838,157.233038 49.9624733,158.315926 49.9624733,166.860776 L49.9624733,179.802385 C49.9624733,188.348514 49.9023838,189.371313 49.8422944,192.924263 L45.8111861,193.162063 L45.8111861,194.257737 C47.8555065,194.197009 49.600658,194.136919 52.3692482,194.136919 C55.0771097,194.136919 57.0031688,194.257737 58.926671,194.257737 L58.926671,193.162063 L54.896202,192.924263 Z M115.968834,160.139066 C115.807743,160.229201 115.634506,160.679872 115.368579,161.324874 L110.314032,174.806649 C110.253303,174.924911 110.132485,175.288004 110.132485,175.469551 C110.132485,175.830088 110.372203,175.948988 111.155284,175.948988 L120.963291,175.948988 C121.685004,175.948988 121.806462,175.890817 121.806462,175.469551 C121.806462,175.408823 121.806462,175.288004 121.564186,174.62702 L116.751276,161.565872 C116.450189,160.722701 116.209831,160.120528 116.028284,160.120528 C116.009746,160.120528 115.988651,160.126921 115.968834,160.139066 Z M136.005475,193.121152 L139.615317,192.924263 L139.674768,190.152476 C139.795586,181.427997 139.856315,180.464009 139.917683,175.469551 L140.035944,157.172309 C140.035944,155.803036 138.091986,154.003548 135.584209,153.612967 C135.444214,153.591232 135.304857,153.573333 135.163583,153.560548 L135.163583,152.478299 L135.584209,152.482773 C139.773212,152.542224 140.381139,152.597838 143.526886,152.597838 C145.933022,155.846505 163.683706,179.802385 168.618713,185.580563 L168.557345,153.680727 L163.743156,153.560548 L163.743156,152.478299 C164.645776,152.478299 168.557345,152.597838 169.220247,152.597838 C169.821141,152.597838 173.791521,152.478299 174.63597,152.478299 L174.63597,153.560548 L170.482765,153.680727 C170.423315,157.051491 170.061499,173.001408 170.061499,174.86546 L169.882509,194.86055 L169.460605,194.86055 C167.534545,192.320172 166.272027,190.57502 154.598051,175.106457 C144.610414,162.288224 143.466157,160.90233 141.480009,158.135019 L141.361108,158.256476 L141.480648,177.576518 C141.480648,178.899765 141.600827,187.264986 141.722284,192.924263 L146.355566,193.162063 L146.355566,194.257737 C144.97159,194.257737 143.406068,194.136919 140.820303,194.136919 C138.654525,194.136919 137.214935,194.216825 136.005475,194.247509 L136.005475,194.257737 L135.655166,194.25518 L135.584209,194.256459 L135.584209,194.253902 C134.268633,194.234724 132.633433,194.136919 130.408844,194.136919 C129.086237,194.136919 124.9944,194.257737 123.430156,194.257737 L123.430156,193.162063 C126.860369,192.924263 127.881251,192.743355 127.880612,192.141182 C127.880612,191.899545 127.76299,191.478919 127.399896,190.57502 L122.767893,177.935137 C122.526896,177.274153 122.408635,177.153335 121.385196,177.153335 L110.372843,177.153335 C109.590401,177.153335 109.289315,177.515789 108.988228,178.297592 L104.89767,190.273934 C104.536494,191.357462 104.294857,192.020364 104.294857,192.44099 C104.294857,192.864173 105.379025,192.983074 108.085608,193.162063 L108.085608,194.257737 C106.162105,194.197009 104.536494,194.136919 103.0317,194.136919 C101.86443,194.136919 100.899163,194.19573 100.078367,194.230889 C99.7095195,194.246231 99.3694387,194.257737 99.0517316,194.257737 L99.0517316,192.804084 C99.4416739,192.777235 99.7791977,192.756779 100.078367,192.724177 C102.003786,192.524732 102.2646,192.000547 103.513055,188.771058 C107.705254,178.074494 111.799009,166.948354 115.968834,155.604869 L117.473628,151.513671 L118.014433,151.513671 C122.647714,164.39519 127.94198,177.876965 131.672641,187.505983 C133.466375,192.102188 133.798146,192.628929 135.584209,192.774678 C135.715895,192.786185 135.858447,192.794495 136.005475,192.804084 L136.005475,193.121152 Z M100.078367,153.591232 L96.9543535,153.680727 C96.8942641,157.051491 96.5337273,173.001408 96.5337273,174.86546 L96.3540981,194.86055 L95.9315541,194.86055 C94.0074127,192.320172 92.7442554,190.57502 81.069,175.106457 C71.0820029,162.288224 69.937746,160.90233 67.9528759,158.135019 L67.8320577,158.256476 L67.9535152,177.576518 C67.9535152,178.899765 68.0724156,187.264986 68.1925945,192.924263 L72.8258759,193.162063 L72.8258759,194.257737 C71.4438182,194.257737 69.8770173,194.136919 67.2906133,194.136919 C64.6441198,194.136919 63.0785974,194.257737 61.6939827,194.257737 L61.6946219,193.162063 L66.0881847,192.924263 L66.1482742,190.152476 C66.2671746,181.427997 66.3285426,180.464009 66.3879928,175.469551 L66.5094502,157.172309 C66.5094502,155.726326 64.3411154,153.800906 61.6345325,153.560548 L61.6345325,152.478299 C66.2083636,152.53711 66.7491688,152.597838 69.9978355,152.597838 C72.4052496,155.846505 90.1559336,179.802385 95.0890231,185.580563 L95.0289336,153.680727 L90.2160231,153.560548 L90.2160231,152.478299 C91.1192828,152.478299 95.0289336,152.597838 95.6911962,152.597838 C96.1527345,152.597838 98.5844401,152.526882 100.078367,152.49428 C100.537987,152.484691 100.909391,152.478299 101.107558,152.478299 L101.107558,153.560548 L100.078367,153.591232 Z M18.0728658,153.680727 C18.1917662,158.256476 18.1917662,160.060439 18.1917662,176.070446 L18.1917662,192.924263 L14.4623838,193.162063 L14.4623838,194.257737 C16.5073434,194.197009 18.1917662,194.136919 20.5985411,194.136919 C22.1640635,194.136919 24.5107489,194.197009 27.5184185,194.257737 L27.5184185,193.162063 L23.1855844,192.924263 C23.0059553,188.530061 23.0059553,178.41841 23.0059553,173.422035 C24.8706465,173.422035 30.5273665,173.422035 31.8518918,173.543492 C32.8133232,173.66431 33.1751385,174.745921 33.4749466,180.825824 L35.4003665,180.825824 C35.2801876,179.080033 35.1612872,177.515789 35.1612872,173.904668 C35.1612872,168.907654 35.4003665,166.018885 35.521824,164.334462 L33.5957648,164.334462 C33.5363146,164.996085 33.7159437,170.474455 32.0909711,171.255618 C30.7076349,172.03742 25.4734589,172.218328 23.0059553,172.218328 L23.0059553,153.680727 L30.8879033,153.680727 C37.6876017,153.680727 38.8305801,153.921085 39.9147475,154.404358 C41.4789913,155.185521 41.6586205,156.330417 42.3809726,162.168045 L44.366482,162.168045 L44.0666739,152.478299 C38.4099538,152.53711 29.2028413,152.597838 24.5107489,152.597838 C18.132316,152.597838 16.0266277,152.478299 14.3409264,152.478299 L14.3409264,153.560548 L18.0728658,153.680727 Z M250.750146,183.353417 L249.006273,183.353417 L246.178232,192.924263 L231.736944,192.924263 C228.969632,192.924263 228.367459,192.201911 228.245362,190.394752 C228.127101,188.952605 228.127101,178.658128 228.066372,173.060859 C229.690706,173.060859 236.609944,173.060859 237.393025,173.302495 C238.596092,173.66431 238.416463,178.778307 238.596092,180.464009 L240.400694,180.464009 C240.341244,178.599317 240.281794,176.67198 240.281794,173.422035 C240.281794,168.428216 240.461423,165.779166 240.64233,164.033375 L238.715632,164.033375 C238.656821,164.996085 238.535364,169.870364 237.333574,170.834991 C236.249407,171.736333 229.931703,171.797701 228.066372,171.857791 L228.066372,153.680727 L236.670033,153.680727 C241.303315,153.680727 244.252173,153.740177 245.394512,154.702887 C246.538769,155.606786 246.65703,159.340004 246.780405,161.505143 L248.704547,161.505143 L248.704547,152.478299 C240.461423,152.53711 228.066372,152.597838 227.524928,152.597838 C225.357872,152.597838 223.61272,152.53711 222.229384,152.53711 C220.846048,152.478299 219.823887,152.416291 219.040167,152.416291 L219.040167,153.560548 L223.133283,153.680727 C223.373001,160.241986 223.252823,166.800687 223.252823,173.302495 C223.252823,179.861835 223.373001,186.422455 223.133283,192.924263 L219.401343,193.162063 L219.401343,194.257737 C222.531749,194.12733 223.975175,194.12733 233.180369,194.12733 L250.027794,194.12733 L250.750146,183.353417 Z M213.443537,180.344469 C211.820482,187.62744 207.487648,193.525157 199.424792,193.525157 C191.902742,193.525157 182.696908,186.844359 182.696908,172.399874 C182.696908,159.399455 190.521323,152.717378 198.040177,152.717378 C203.877166,152.717378 210.616136,156.690315 213.083639,166.078974 L214.167167,166.078974 L214.167167,154.762977 L212.541556,154.762977 C212.420737,155.246889 212.241108,155.846505 211.699664,155.846505 C210.979229,155.846505 205.201052,151.513671 197.740369,151.513671 C187.089831,151.513671 177.52346,159.759352 177.52346,173.181038 C177.52346,186.181457 185.946214,195.220447 197.85927,195.220447 C203.576079,195.220447 209.111342,193.284799 213.925531,190.152476 L214.588433,180.344469 L213.443537,180.344469 Z" id="Fill-6" style="fill: rgb(0, 0, 0);"/>
      <path d="M190.28544,62.1657489 C189.038264,62.3920433 187.66132,62.5045512 186.150773,62.5045512 L180.345108,62.5045512 L180.345108,39.3368658 L186.586102,39.3368658 C187.92533,39.3368658 189.159082,39.4378672 190.28544,39.6379524 C191.436089,39.8412338 192.476149,40.1506306 193.4037,40.5635859 C195.24346,41.3799076 196.645335,42.4027071 197.613159,43.6287879 C198.579065,44.8555079 199.255391,46.082228 199.643416,47.3095873 C200.030801,48.5356681 200.225133,49.6939885 200.225133,50.7832698 C200.225133,51.6034271 200.103036,52.6019351 199.86076,53.7832684 C199.617846,54.965241 199.036768,56.2360693 198.119444,57.5983102 C197.201482,58.962469 195.750385,60.1207893 193.766794,61.0739105 C192.751665,61.5622973 191.590788,61.9279481 190.28544,62.1657489 Z M190.28544,102.694176 C189.183374,102.794538 188.095371,102.841203 187.020153,102.841203 L180.345108,102.841203 L180.345108,78.039596 L189.4851,78.039596 C189.756781,78.039596 190.02143,78.0466277 190.28544,78.0574949 C193.874827,78.1917374 196.727798,79.2541703 198.844993,81.2441544 C201.118165,83.3786089 202.256668,86.4885584 202.256668,90.5765599 C202.256668,93.3956508 201.673672,95.6656263 200.514713,97.3922395 C199.353196,99.1169351 197.925752,100.367307 196.234297,101.14016 C194.542203,101.911734 192.945358,102.388615 191.445039,102.570162 C191.057014,102.618745 190.669629,102.659017 190.28544,102.694176 Z M157.421616,118.924085 L193.839668,118.924085 C196.161423,118.924085 198.967089,118.63003 202.256668,118.040642 C205.54369,117.448058 208.955365,116.266085 212.484023,114.495364 C216.01396,112.724642 219.01268,110.019977 221.481462,106.387121 C223.948326,102.752987 225.180799,98.1644531 225.180799,92.6221587 C225.180799,85.6274892 223.390261,80.3345022 219.811742,76.7463939 C216.231944,73.1570072 211.250911,70.7719668 204.868003,69.5912727 L204.868003,69.3176739 C206.512153,69.136127 208.350635,68.5927648 210.380892,67.6831126 C212.411788,66.7760173 214.419671,65.4342323 216.402623,63.6635108 C218.386215,61.8921501 220.004795,59.6426306 221.262838,56.9181486 C222.520242,54.1911097 223.149264,51.0575079 223.149264,47.5141472 C223.149903,44.7877475 222.665352,42.0402525 221.700085,39.2691053 C220.729704,36.4992367 219.157789,33.9543838 216.981784,31.6383824 C214.805778,29.319824 211.879293,27.4346768 208.203608,25.9816623 C204.529201,24.5280087 200.177189,23.8011818 195.145655,23.8011818 L157.421616,23.8011818 L157.421616,118.924085 Z" id="Fill-7" style="fill: rgb(0, 0, 0);"/>
      <polyline id="Fill-8" points="420.187737 118.924085 441.950352 118.924085 441.950352 23.8011818 407.710224 23.8011818 390.006844 84.9914358 389.718543 84.9914358 373.323707 23.8011818 337.484815 23.8011818 337.484815 118.924085 359.24743 118.924085 359.24743 43.6984661 359.538928 43.6984661 381.447291 118.924085 397.117218 118.924085 419.898797 43.6984661 420.187737 43.6984661 420.187737 118.924085" style="fill: rgb(0, 0, 0);"/>
      <polyline id="Fill-9" points="240.269648 118.924085 261.164162 118.924085 261.164162 50.1031082 261.453742 50.1031082 290.616949 118.924085 318.766947 118.924085 318.766947 23.8011818 297.873711 23.8011818 297.873711 89.7595988 297.582214 89.7595988 268.129426 23.8011818 240.269648 23.8011818 240.269648 118.924085" style="fill: rgb(0, 0, 0);"/>
    </g>
  </g>
</svg>